<svg id="Layer_1" data-name="Layer 1" xmlns="http://www.w3.org/2000/svg" viewBox="0 0 114.5 129.08"><defs><style>.cls-1{fill:#231f20;}</style></defs><title>emdm_logoVERT</title><path class="cls-1" d="M108.58,44.38,86.23,63.13V99.59h4.41V66.49l23.55-20.07V14.5a6.28,6.28,0,0,0-5.61-6.25Z" transform="translate(-11 -8.21)"/><path class="cls-1" d="M79,26.1V99.59h4.25V37.23a3,3,0,1,1,3,0v22L105.58,43V8.21H47.38V66.48L66.73,82.71V46.59a3,3,0,1,1,3,0v53H76V26.1a3,3,0,1,1,3,0Z" transform="translate(-11 -8.21)"/><polygon class="cls-1" points="103.19 42.15 82.64 59.66 82.64 91.38 87.45 91.38 87.45 61.57 103.19 48.75 103.19 42.15"/><path class="cls-1" d="M45.75,95.46v4.13h5.54V94.13L28.48,74.88V46.37a3,3,0,1,1,3,0V73.48L54.29,92.73v6.86h5V91.37L36.43,71.87V51.23a3,3,0,1,1,3,0V70.49L62.31,90v9.6h4.42v-13L44.38,67.88V8.21H28.6a6.29,6.29,0,0,0-6.29,6.29V76.07Z" transform="translate(-11 -8.21)"/><path class="cls-1" d="M101.45,71.2V99.59h6.45a6.29,6.29,0,0,0,6.29-6.29V60.83Z" transform="translate(-11 -8.21)"/><path class="cls-1" d="M42.75,96.88,22.31,80V93.3a6.29,6.29,0,0,0,6.29,6.29H42.75Z" transform="translate(-11 -8.21)"/><path class="cls-1" d="M11,134.82V113.53a2.26,2.26,0,0,1,2.29-2.29h15a2.05,2.05,0,0,1,2,2,2,2,0,0,1-2,2H15.55V122H26.67a2.05,2.05,0,0,1,2,2.07,2,2,0,0,1-2,2H15.55V133h13a2.05,2.05,0,0,1,2,2,2,2,0,0,1-2,2H13.29A2.26,2.26,0,0,1,11,134.82Z" transform="translate(-11 -8.21)"/><path class="cls-1" d="M36.87,113.38a2.28,2.28,0,0,1,2.29-2.29h.48a2.4,2.4,0,0,1,2.11,1.22l7.84,12.27,7.87-12.31a2.29,2.29,0,0,1,2.07-1.18H60a2.28,2.28,0,0,1,2.29,2.29V135A2.25,2.25,0,0,1,60,137.29,2.29,2.29,0,0,1,57.75,135V119.52L51.43,129a2.11,2.11,0,0,1-3.8,0l-6.29-9.42v15.49a2.2,2.2,0,0,1-2.25,2.21,2.18,2.18,0,0,1-2.22-2.21Z" transform="translate(-11 -8.21)"/><path class="cls-1" d="M70.06,113.53a2.26,2.26,0,0,1,2.29-2.29h7.36c8.13,0,13.75,5.58,13.75,12.86v.07c0,7.28-5.62,12.94-13.75,12.94H72.35a2.26,2.26,0,0,1-2.29-2.29ZM79.71,133c5.43,0,9-3.66,9-8.72v-.08c0-5.06-3.55-8.79-9-8.79h-5.1V133Z" transform="translate(-11 -8.21)"/><path class="cls-1" d="M100.07,113.38a2.28,2.28,0,0,1,2.29-2.29h.48a2.4,2.4,0,0,1,2.11,1.22l7.84,12.27,7.87-12.31a2.29,2.29,0,0,1,2.07-1.18h.48a2.28,2.28,0,0,1,2.29,2.29V135a2.25,2.25,0,0,1-2.29,2.25A2.29,2.29,0,0,1,121,135V119.52L114.63,129a2.11,2.11,0,0,1-3.8,0l-6.29-9.42v15.49a2.2,2.2,0,0,1-2.25,2.21,2.18,2.18,0,0,1-2.22-2.21Z" transform="translate(-11 -8.21)"/></svg>