<?xml version="1.0" encoding="UTF-8" standalone="no"?>
<!-- Created with Inkscape (http://www.inkscape.org/) -->

<svg
   xmlns:dc="http://purl.org/dc/elements/1.1/"
   xmlns:cc="http://creativecommons.org/ns#"
   xmlns:rdf="http://www.w3.org/1999/02/22-rdf-syntax-ns#"
   xmlns:svg="http://www.w3.org/2000/svg"
   xmlns="http://www.w3.org/2000/svg"
   xmlns:sodipodi="http://sodipodi.sourceforge.net/DTD/sodipodi-0.dtd"
   xmlns:inkscape="http://www.inkscape.org/namespaces/inkscape"
   version="1.1"
   id="svg2"
   xml:space="preserve"
   width="815.96222"
   height="1055.9622"
   viewBox="0 0 815.96222 1055.9622"
   sodipodi:docname="lostInSpaceVirtualPhysicalDiagram.303.svg"
   inkscape:version="0.92.0 r15299"><metadata
     id="metadata8"><rdf:RDF><cc:Work
         rdf:about=""><dc:format>image/svg+xml</dc:format><dc:type
           rdf:resource="http://purl.org/dc/dcmitype/StillImage" /><dc:title></dc:title></cc:Work></rdf:RDF></metadata><defs
     id="defs6"><clipPath
       clipPathUnits="userSpaceOnUse"
       id="clipPath18"><path
         d="M 0,0 H 612 V 792 H 0 Z"
         id="path16"
         inkscape:connector-curvature="0"
         style="clip-rule:evenodd" /></clipPath></defs><sodipodi:namedview
     pagecolor="#ffffff"
     bordercolor="#666666"
     borderopacity="1"
     objecttolerance="10"
     gridtolerance="10"
     guidetolerance="10"
     inkscape:pageopacity="0"
     inkscape:pageshadow="2"
     inkscape:window-width="815"
     inkscape:window-height="480"
     id="namedview4"
     showgrid="false"
     inkscape:zoom="0.22349286"
     inkscape:cx="407.98111"
     inkscape:cy="527.98108"
     inkscape:window-x="0"
     inkscape:window-y="0"
     inkscape:window-maximized="0"
     inkscape:current-layer="g10" /><g
     id="g10"
     inkscape:groupmode="layer"
     inkscape:label="lostInSpaceDiagram.001"
     transform="matrix(1.3333333,0,0,-1.3333333,0,1055.9622)"><g
       id="g12"><g
         id="g14"
         clip-path="url(#clipPath18)"><path
           d="M 0,791.9 H 612 V -0.1 H 0 Z"
           style="fill:#ffffff;fill-opacity:1;fill-rule:evenodd;stroke:none"
           id="path20"
           inkscape:connector-curvature="0" /><path
           d="M 583.7,587.2 V 462.7 L 448.9,328 H 28.3 v 124.4 l 134.8,134.8 z m 0,-259.2 z M 28.3,587.2 Z"
           style="fill:#eeeeee;fill-opacity:1;fill-rule:evenodd;stroke:none"
           id="path22"
           inkscape:connector-curvature="0" /><g
           id="g24"><path
             d="M 583.7,587.2 V 462.7 L 448.9,328 H 28.3 v 124.4 l 134.8,134.8 z"
             style="fill:none;stroke:#dddddd;stroke-width:0.75;stroke-linecap:butt;stroke-linejoin:round;stroke-miterlimit:10;stroke-dasharray:none;stroke-opacity:1"
             id="path26"
             inkscape:connector-curvature="0" /></g><g
           id="g28"><path
             d="M 583.7,328 Z"
             style="fill:none;stroke:#dddddd;stroke-width:0.75;stroke-linecap:butt;stroke-linejoin:round;stroke-miterlimit:10;stroke-dasharray:none;stroke-opacity:1"
             id="path30"
             inkscape:connector-curvature="0" /></g><g
           id="g32"><path
             d="M 28.3,587.2 Z"
             style="fill:none;stroke:#dddddd;stroke-width:0.75;stroke-linecap:butt;stroke-linejoin:round;stroke-miterlimit:10;stroke-dasharray:none;stroke-opacity:1"
             id="path34"
             inkscape:connector-curvature="0" /></g><path
           d="M 583.7,462.7 448.9,328 H 28.3 l 134.8,134.7 z m 0,-134.7 z M 28.3,587.2 Z"
           style="fill:#f1f1f1;fill-opacity:1;fill-rule:evenodd;stroke:none"
           id="path36"
           inkscape:connector-curvature="0" /><g
           id="g38"><path
             d="M 583.7,462.7 448.9,328 H 28.3 l 134.8,134.7 z"
             style="fill:none;stroke:#dddddd;stroke-width:0.75;stroke-linecap:butt;stroke-linejoin:round;stroke-miterlimit:10;stroke-dasharray:none;stroke-opacity:1"
             id="path40"
             inkscape:connector-curvature="0" /></g><g
           id="g42"><path
             d="M 583.7,328 Z"
             style="fill:none;stroke:#dddddd;stroke-width:0.75;stroke-linecap:butt;stroke-linejoin:round;stroke-miterlimit:10;stroke-dasharray:none;stroke-opacity:1"
             id="path44"
             inkscape:connector-curvature="0" /></g><g
           id="g46"><path
             d="M 28.3,587.2 Z"
             style="fill:none;stroke:#dddddd;stroke-width:0.75;stroke-linecap:butt;stroke-linejoin:round;stroke-miterlimit:10;stroke-dasharray:none;stroke-opacity:1"
             id="path48"
             inkscape:connector-curvature="0" /></g><path
           d="M 163.1,587.2 V 462.7 L 28.3,328 V 452.4 Z M 583.7,328 Z M 28.3,587.2 Z"
           style="fill:#bebebe;fill-opacity:1;fill-rule:evenodd;stroke:none"
           id="path50"
           inkscape:connector-curvature="0" /><g
           id="g52"><path
             d="M 163.1,587.2 V 462.7 L 28.3,328 v 124.4 z"
             style="fill:none;stroke:#dddddd;stroke-width:0.75;stroke-linecap:butt;stroke-linejoin:round;stroke-miterlimit:10;stroke-dasharray:none;stroke-opacity:1"
             id="path54"
             inkscape:connector-curvature="0" /></g><g
           id="g56"><path
             d="M 583.7,328 Z"
             style="fill:none;stroke:#dddddd;stroke-width:0.75;stroke-linecap:butt;stroke-linejoin:round;stroke-miterlimit:10;stroke-dasharray:none;stroke-opacity:1"
             id="path58"
             inkscape:connector-curvature="0" /></g><g
           id="g60"><path
             d="M 28.3,587.2 Z"
             style="fill:none;stroke:#dddddd;stroke-width:0.75;stroke-linecap:butt;stroke-linejoin:round;stroke-miterlimit:10;stroke-dasharray:none;stroke-opacity:1"
             id="path62"
             inkscape:connector-curvature="0" /></g><path
           d="m 104.7,493.6 7.2,-9 -7.2,-9 -7.2,9 7.2,9 z m -7.2,0 z m 14.4,-18 z"
           style="fill:#0066ff;fill-opacity:1;fill-rule:evenodd;stroke:none"
           id="path64"
           inkscape:connector-curvature="0" /><g
           id="g66"><path
             d="m 104.7,493.6 7.2,-9 -7.2,-9 -7.2,9 7.2,9 z"
             style="fill:none;stroke:#0066cc;stroke-width:0.50940001;stroke-linecap:butt;stroke-linejoin:round;stroke-miterlimit:10;stroke-dasharray:none;stroke-opacity:1"
             id="path68"
             inkscape:connector-curvature="0" /></g><g
           id="g70"><path
             d="M 97.5,493.6 Z"
             style="fill:none;stroke:#0066cc;stroke-width:0.50940001;stroke-linecap:butt;stroke-linejoin:round;stroke-miterlimit:10;stroke-dasharray:none;stroke-opacity:1"
             id="path72"
             inkscape:connector-curvature="0" /></g><g
           id="g74"><path
             d="M 111.9,475.6 Z"
             style="fill:none;stroke:#0066cc;stroke-width:0.50940001;stroke-linecap:butt;stroke-linejoin:round;stroke-miterlimit:10;stroke-dasharray:none;stroke-opacity:1"
             id="path76"
             inkscape:connector-curvature="0" /></g><path
           d="m 246.4,564.4 7.3,-9 -7.3,-9 -7.2,9 7.2,9 z m -7.2,0 z m 14.5,-18 z"
           style="fill:#0066ff;fill-opacity:1;fill-rule:evenodd;stroke:none"
           id="path78"
           inkscape:connector-curvature="0" /><g
           id="g80"><path
             d="m 246.4,564.4 7.3,-9 -7.3,-9 -7.2,9 7.2,9 z"
             style="fill:none;stroke:#0066cc;stroke-width:0.50940001;stroke-linecap:butt;stroke-linejoin:round;stroke-miterlimit:10;stroke-dasharray:none;stroke-opacity:1"
             id="path82"
             inkscape:connector-curvature="0" /></g><g
           id="g84"><path
             d="M 239.2,564.4 Z"
             style="fill:none;stroke:#0066cc;stroke-width:0.50940001;stroke-linecap:butt;stroke-linejoin:round;stroke-miterlimit:10;stroke-dasharray:none;stroke-opacity:1"
             id="path86"
             inkscape:connector-curvature="0" /></g><g
           id="g88"><path
             d="M 253.7,546.4 Z"
             style="fill:none;stroke:#0066cc;stroke-width:0.50940001;stroke-linecap:butt;stroke-linejoin:round;stroke-miterlimit:10;stroke-dasharray:none;stroke-opacity:1"
             id="path90"
             inkscape:connector-curvature="0" /></g><path
           d="m 478.9,564.4 7.2,-9 -7.2,-9 -7.2,9 7.2,9 z m -7.2,0 z m 14.4,-18 z"
           style="fill:#0066ff;fill-opacity:1;fill-rule:evenodd;stroke:none"
           id="path92"
           inkscape:connector-curvature="0" /><g
           id="g94"><path
             d="m 478.9,564.4 7.2,-9 -7.2,-9 -7.2,9 7.2,9 z"
             style="fill:none;stroke:#0066cc;stroke-width:0.50940001;stroke-linecap:butt;stroke-linejoin:round;stroke-miterlimit:10;stroke-dasharray:none;stroke-opacity:1"
             id="path96"
             inkscape:connector-curvature="0" /></g><g
           id="g98"><path
             d="M 471.7,564.4 Z"
             style="fill:none;stroke:#0066cc;stroke-width:0.50940001;stroke-linecap:butt;stroke-linejoin:round;stroke-miterlimit:10;stroke-dasharray:none;stroke-opacity:1"
             id="path100"
             inkscape:connector-curvature="0" /></g><g
           id="g102"><path
             d="M 486.1,546.4 Z"
             style="fill:none;stroke:#0066cc;stroke-width:0.50940001;stroke-linecap:butt;stroke-linejoin:round;stroke-miterlimit:10;stroke-dasharray:none;stroke-opacity:1"
             id="path104"
             inkscape:connector-curvature="0" /></g><g
           id="g106"><path
             d="m 226.3,432.4 v -54"
             style="fill:none;stroke:#111111;stroke-width:2.99979997;stroke-linecap:butt;stroke-linejoin:round;stroke-miterlimit:10;stroke-dasharray:none;stroke-opacity:1"
             id="path108"
             inkscape:connector-curvature="0" /></g><g
           id="g110"><path
             d="m 226.3,378.4 -18,-36"
             style="fill:none;stroke:#111111;stroke-width:2.99979997;stroke-linecap:butt;stroke-linejoin:round;stroke-miterlimit:10;stroke-dasharray:none;stroke-opacity:1"
             id="path112"
             inkscape:connector-curvature="0" /></g><g
           id="g114"><path
             d="m 226.3,378.4 18,-36"
             style="fill:none;stroke:#111111;stroke-width:2.99979997;stroke-linecap:butt;stroke-linejoin:round;stroke-miterlimit:10;stroke-dasharray:none;stroke-opacity:1"
             id="path116"
             inkscape:connector-curvature="0" /></g><g
           id="g118"><path
             d="M 226.3,422.9 204.7,401.3"
             style="fill:none;stroke:#111111;stroke-width:2.99979997;stroke-linecap:butt;stroke-linejoin:round;stroke-miterlimit:10;stroke-dasharray:none;stroke-opacity:1"
             id="path120"
             inkscape:connector-curvature="0" /></g><g
           id="g122"><path
             d="m 226.3,422.7 21.6,-18"
             style="fill:none;stroke:#111111;stroke-width:2.99979997;stroke-linecap:butt;stroke-linejoin:round;stroke-miterlimit:10;stroke-dasharray:none;stroke-opacity:1"
             id="path124"
             inkscape:connector-curvature="0" /></g><path
           d="m 249.6,414.4 h 13.5 l -4.5,-21.7 h -13.5 z m -4.5,0 z m 18,-21.7 z"
           style="fill:#333333;fill-opacity:1;fill-rule:evenodd;stroke:none"
           id="path126"
           inkscape:connector-curvature="0" /><g
           id="g128"><path
             d="m 249.6,414.4 h 13.5 l -4.5,-21.7 h -13.5 z"
             style="fill:none;stroke:#111111;stroke-width:0.99049997;stroke-linecap:butt;stroke-linejoin:round;stroke-miterlimit:10;stroke-dasharray:none;stroke-opacity:1"
             id="path130"
             inkscape:connector-curvature="0" /></g><g
           id="g132"><path
             d="M 245.1,414.4 Z"
             style="fill:none;stroke:#111111;stroke-width:0.99049997;stroke-linecap:butt;stroke-linejoin:round;stroke-miterlimit:10;stroke-dasharray:none;stroke-opacity:1"
             id="path134"
             inkscape:connector-curvature="0" /></g><g
           id="g136"><path
             d="M 263.1,392.7 Z"
             style="fill:none;stroke:#111111;stroke-width:0.99049997;stroke-linecap:butt;stroke-linejoin:round;stroke-miterlimit:10;stroke-dasharray:none;stroke-opacity:1"
             id="path138"
             inkscape:connector-curvature="0" /></g><path
           d="m 253.6,416.9 c 0.6,1.4 1.7,2.8 3.2,2.6 1.6,-0.2 2.2,-1.7 2.6,-3.3 0.4,3.3 -0.6,6.1 -2.2,6.3 -1.6,0.2 -3.2,-2.3 -3.6,-5.6 z m 0.7,6 z m 5.1,-6.7 z"
           style="fill:#ffcc00;fill-opacity:1;fill-rule:evenodd;stroke:none"
           id="path140"
           inkscape:connector-curvature="0" /><g
           id="g142"><path
             d="m 253.6,416.9 c 0.6,1.4 1.7,2.8 3.2,2.6 1.6,-0.2 2.2,-1.7 2.6,-3.3 0.4,3.3 -0.6,6.1 -2.2,6.3 -1.6,0.2 -3.2,-2.3 -3.6,-5.6 z"
             style="fill:none;stroke:#ffcc00;stroke-width:0.50940001;stroke-linecap:butt;stroke-linejoin:round;stroke-miterlimit:10;stroke-dasharray:none;stroke-opacity:1"
             id="path144"
             inkscape:connector-curvature="0" /></g><g
           id="g146"><path
             d="M 254.3,422.9 Z"
             style="fill:none;stroke:#ffcc00;stroke-width:0.50940001;stroke-linecap:butt;stroke-linejoin:round;stroke-miterlimit:10;stroke-dasharray:none;stroke-opacity:1"
             id="path148"
             inkscape:connector-curvature="0" /></g><g
           id="g150"><path
             d="M 259.4,416.2 Z"
             style="fill:none;stroke:#ffcc00;stroke-width:0.50940001;stroke-linecap:butt;stroke-linejoin:round;stroke-miterlimit:10;stroke-dasharray:none;stroke-opacity:1"
             id="path152"
             inkscape:connector-curvature="0" /></g><path
           d="m 251.7,422.9 c 1.2,1.4 3.1,2.7 6.3,2.3 3.1,-0.4 4.6,-2.1 5.5,-3.7 0.4,3.3 -1.9,6.3 -5.2,6.7 -3.3,0.4 -6.2,-2 -6.6,-5.3 z m 0.7,6 z m 11.1,-7.4 z"
           style="fill:#ffcc00;fill-opacity:1;fill-rule:evenodd;stroke:none"
           id="path154"
           inkscape:connector-curvature="0" /><g
           id="g156"><path
             d="m 251.7,422.9 c 1.2,1.4 3.1,2.7 6.3,2.3 3.1,-0.4 4.6,-2.1 5.5,-3.7 0.4,3.3 -1.9,6.3 -5.2,6.7 -3.3,0.4 -6.2,-2 -6.6,-5.3 z"
             style="fill:none;stroke:#ffcc00;stroke-width:0.50940001;stroke-linecap:butt;stroke-linejoin:round;stroke-miterlimit:10;stroke-dasharray:none;stroke-opacity:1"
             id="path158"
             inkscape:connector-curvature="0" /></g><g
           id="g160"><path
             d="M 252.4,428.9 Z"
             style="fill:none;stroke:#ffcc00;stroke-width:0.50940001;stroke-linecap:butt;stroke-linejoin:round;stroke-miterlimit:10;stroke-dasharray:none;stroke-opacity:1"
             id="path162"
             inkscape:connector-curvature="0" /></g><g
           id="g164"><path
             d="M 263.5,421.5 Z"
             style="fill:none;stroke:#ffcc00;stroke-width:0.50940001;stroke-linecap:butt;stroke-linejoin:round;stroke-miterlimit:10;stroke-dasharray:none;stroke-opacity:1"
             id="path166"
             inkscape:connector-curvature="0" /></g><g
           id="g168"><text
             transform="matrix(1,0,0,-1,172.5,596.1)"
             style="font-variant:normal;font-weight:normal;font-size:18px;font-family:'IBM Plex Sans';-inkscape-font-specification:IBMPlexSansText;writing-mode:lr-tb;fill:#000000;fill-opacity:1;fill-rule:nonzero;stroke:none"
             id="text172"><tspan
               x="0 10.998 21.204 30.312 39.113998 43.793999 52.883999 62.658001 67.662003 71.856003 82.349998 92.933998 102.636 111.636"
               y="0"
               sodipodi:role="line"
               id="tspan170">Physical Space</tspan></text>
</g><path
           d="m 226.4,464.8 c 9.2,0 16.2,-7 16.2,-16.2 0,-9.2 -7,-16.2 -16.2,-16.2 -9.2,0 -16.2,7 -16.2,16.2 0,9.2 7,16.2 16.2,16.2 z m -16.2,0 z m 32.4,-32.4 z"
           style="fill:#cccccc;fill-opacity:1;fill-rule:evenodd;stroke:none"
           id="path174"
           inkscape:connector-curvature="0" /><g
           id="g176"><path
             d="m 226.4,464.8 c 9.2,0 16.2,-7 16.2,-16.2 0,-9.2 -7,-16.2 -16.2,-16.2 -9.2,0 -16.2,7 -16.2,16.2 0,9.2 7,16.2 16.2,16.2 z"
             style="fill:none;stroke:#111111;stroke-width:2.99979997;stroke-linecap:butt;stroke-linejoin:round;stroke-miterlimit:10;stroke-dasharray:none;stroke-opacity:1"
             id="path178"
             inkscape:connector-curvature="0" /></g><g
           id="g180"><path
             d="M 210.2,464.8 Z"
             style="fill:none;stroke:#111111;stroke-width:2.99979997;stroke-linecap:butt;stroke-linejoin:round;stroke-miterlimit:10;stroke-dasharray:none;stroke-opacity:1"
             id="path182"
             inkscape:connector-curvature="0" /></g><g
           id="g184"><path
             d="M 242.6,432.4 Z"
             style="fill:none;stroke:#111111;stroke-width:2.99979997;stroke-linecap:butt;stroke-linejoin:round;stroke-miterlimit:10;stroke-dasharray:none;stroke-opacity:1"
             id="path186"
             inkscape:connector-curvature="0" /></g><path
           d="m 255,538.1 c -2.4,0 -6.2,0.5 -12.4,3 -6.2,2.6 -9.2,4.8 -11,6.5 -0.7,-1.9 3.9,-5.5 10.4,-8.2 6.4,-2.6 12.2,-3.2 13,-1.3 z m -1.4,-3.4 z m -22,12.9 z"
           style="fill:#000099;fill-opacity:1;fill-rule:evenodd;stroke:none"
           id="path188"
           inkscape:connector-curvature="0" /><g
           id="g190"><path
             d="m 255,538.1 c -2.4,0 -6.2,0.5 -12.4,3 -6.2,2.6 -9.2,4.8 -11,6.5 -0.7,-1.9 3.9,-5.5 10.4,-8.2 6.4,-2.6 12.2,-3.2 13,-1.3 z"
             style="fill:none;stroke:#000099;stroke-width:0.50940001;stroke-linecap:butt;stroke-linejoin:round;stroke-miterlimit:10;stroke-dasharray:none;stroke-opacity:1"
             id="path192"
             inkscape:connector-curvature="0" /></g><g
           id="g194"><path
             d="M 253.6,534.7 Z"
             style="fill:none;stroke:#000099;stroke-width:0.50940001;stroke-linecap:butt;stroke-linejoin:round;stroke-miterlimit:10;stroke-dasharray:none;stroke-opacity:1"
             id="path196"
             inkscape:connector-curvature="0" /></g><g
           id="g198"><path
             d="M 231.6,547.6 Z"
             style="fill:none;stroke:#000099;stroke-width:0.50940001;stroke-linecap:butt;stroke-linejoin:round;stroke-miterlimit:10;stroke-dasharray:none;stroke-opacity:1"
             id="path200"
             inkscape:connector-curvature="0" /></g><path
           d="m 258.8,529.8 c -3.9,-0.6 -9.7,-0.5 -19,3.3 -9.2,3.7 -13.5,7.7 -15.8,10.9 -1.8,-4.2 4.7,-10.8 14.3,-14.7 9.5,-3.9 18.7,-3.7 20.5,0.5 z m -3.1,-7.6 z M 224,544 Z"
           style="fill:#000099;fill-opacity:1;fill-rule:evenodd;stroke:none"
           id="path202"
           inkscape:connector-curvature="0" /><g
           id="g204"><path
             d="m 258.8,529.8 c -3.9,-0.6 -9.7,-0.5 -19,3.3 -9.2,3.7 -13.5,7.7 -15.8,10.9 -1.8,-4.2 4.7,-10.8 14.3,-14.7 9.5,-3.9 18.7,-3.7 20.5,0.5 z"
             style="fill:none;stroke:#000099;stroke-width:0.50940001;stroke-linecap:butt;stroke-linejoin:round;stroke-miterlimit:10;stroke-dasharray:none;stroke-opacity:1"
             id="path206"
             inkscape:connector-curvature="0" /></g><g
           id="g208"><path
             d="M 255.7,522.2 Z"
             style="fill:none;stroke:#000099;stroke-width:0.50940001;stroke-linecap:butt;stroke-linejoin:round;stroke-miterlimit:10;stroke-dasharray:none;stroke-opacity:1"
             id="path210"
             inkscape:connector-curvature="0" /></g><g
           id="g212"><path
             d="M 224,544 Z"
             style="fill:none;stroke:#000099;stroke-width:0.50940001;stroke-linecap:butt;stroke-linejoin:round;stroke-miterlimit:10;stroke-dasharray:none;stroke-opacity:1"
             id="path214"
             inkscape:connector-curvature="0" /></g><path
           d="m 486,538.1 c -2.4,0 -6.2,0.5 -12.3,3 -6.2,2.6 -9.3,4.8 -11,6.5 -0.8,-1.9 3.9,-5.5 10.3,-8.2 6.4,-2.6 12.3,-3.2 13,-1.3 z m -1.4,-3.4 z m -22,12.9 z"
           style="fill:#000099;fill-opacity:1;fill-rule:evenodd;stroke:none"
           id="path216"
           inkscape:connector-curvature="0" /><g
           id="g218"><path
             d="m 486,538.1 c -2.4,0 -6.2,0.5 -12.3,3 -6.2,2.6 -9.3,4.8 -11,6.5 -0.8,-1.9 3.9,-5.5 10.3,-8.2 6.4,-2.6 12.3,-3.2 13,-1.3 z"
             style="fill:none;stroke:#000099;stroke-width:0.50940001;stroke-linecap:butt;stroke-linejoin:round;stroke-miterlimit:10;stroke-dasharray:none;stroke-opacity:1"
             id="path220"
             inkscape:connector-curvature="0" /></g><g
           id="g222"><path
             d="M 484.6,534.7 Z"
             style="fill:none;stroke:#000099;stroke-width:0.50940001;stroke-linecap:butt;stroke-linejoin:round;stroke-miterlimit:10;stroke-dasharray:none;stroke-opacity:1"
             id="path224"
             inkscape:connector-curvature="0" /></g><g
           id="g226"><path
             d="M 462.6,547.6 Z"
             style="fill:none;stroke:#000099;stroke-width:0.50940001;stroke-linecap:butt;stroke-linejoin:round;stroke-miterlimit:10;stroke-dasharray:none;stroke-opacity:1"
             id="path228"
             inkscape:connector-curvature="0" /></g><path
           d="m 489.8,529.8 c -3.9,-0.6 -9.7,-0.5 -19,3.3 -9.2,3.7 -13.5,7.7 -15.8,10.9 -1.7,-4.2 4.7,-10.8 14.3,-14.7 9.6,-3.9 18.8,-3.7 20.5,0.5 z m -3.1,-7.6 z M 455,544 Z"
           style="fill:#000099;fill-opacity:1;fill-rule:evenodd;stroke:none"
           id="path230"
           inkscape:connector-curvature="0" /><g
           id="g232"><path
             d="m 489.8,529.8 c -3.9,-0.6 -9.7,-0.5 -19,3.3 -9.2,3.7 -13.5,7.7 -15.8,10.9 -1.7,-4.2 4.7,-10.8 14.3,-14.7 9.6,-3.9 18.8,-3.7 20.5,0.5 z"
             style="fill:none;stroke:#000099;stroke-width:0.50940001;stroke-linecap:butt;stroke-linejoin:round;stroke-miterlimit:10;stroke-dasharray:none;stroke-opacity:1"
             id="path234"
             inkscape:connector-curvature="0" /></g><g
           id="g236"><path
             d="M 486.7,522.2 Z"
             style="fill:none;stroke:#000099;stroke-width:0.50940001;stroke-linecap:butt;stroke-linejoin:round;stroke-miterlimit:10;stroke-dasharray:none;stroke-opacity:1"
             id="path238"
             inkscape:connector-curvature="0" /></g><g
           id="g240"><path
             d="M 455,544 Z"
             style="fill:none;stroke:#000099;stroke-width:0.50940001;stroke-linecap:butt;stroke-linejoin:round;stroke-miterlimit:10;stroke-dasharray:none;stroke-opacity:1"
             id="path242"
             inkscape:connector-curvature="0" /></g><path
           d="m 111.8,467.2 c -2.4,0 -6.1,0.6 -12.3,3.1 -6.2,2.5 -9.3,4.7 -11,6.4 -0.8,-1.9 3.9,-5.5 10.3,-8.1 6.4,-2.6 12.3,-3.3 13,-1.4 z m -1.3,-3.4 z m -22,12.9 z"
           style="fill:#000099;fill-opacity:1;fill-rule:evenodd;stroke:none"
           id="path244"
           inkscape:connector-curvature="0" /><g
           id="g246"><path
             d="m 111.8,467.2 c -2.4,0 -6.1,0.6 -12.3,3.1 -6.2,2.5 -9.3,4.7 -11,6.4 -0.8,-1.9 3.9,-5.5 10.3,-8.1 6.4,-2.6 12.3,-3.3 13,-1.4 z"
             style="fill:none;stroke:#000099;stroke-width:0.50940001;stroke-linecap:butt;stroke-linejoin:round;stroke-miterlimit:10;stroke-dasharray:none;stroke-opacity:1"
             id="path248"
             inkscape:connector-curvature="0" /></g><g
           id="g250"><path
             d="M 110.5,463.8 Z"
             style="fill:none;stroke:#000099;stroke-width:0.50940001;stroke-linecap:butt;stroke-linejoin:round;stroke-miterlimit:10;stroke-dasharray:none;stroke-opacity:1"
             id="path252"
             inkscape:connector-curvature="0" /></g><g
           id="g254"><path
             d="M 88.5,476.7 Z"
             style="fill:none;stroke:#000099;stroke-width:0.50940001;stroke-linecap:butt;stroke-linejoin:round;stroke-miterlimit:10;stroke-dasharray:none;stroke-opacity:1"
             id="path256"
             inkscape:connector-curvature="0" /></g><path
           d="m 115.6,458.9 c -3.9,-0.6 -9.7,-0.4 -18.9,3.3 -9.3,3.8 -13.6,7.7 -15.9,10.9 -1.7,-4.2 4.7,-10.8 14.3,-14.7 9.6,-3.9 18.8,-3.7 20.5,0.5 z m -3.1,-7.6 z m -31.7,21.8 z"
           style="fill:#000099;fill-opacity:1;fill-rule:evenodd;stroke:none"
           id="path258"
           inkscape:connector-curvature="0" /><g
           id="g260"><path
             d="m 115.6,458.9 c -3.9,-0.6 -9.7,-0.4 -18.9,3.3 -9.3,3.8 -13.6,7.7 -15.9,10.9 -1.7,-4.2 4.7,-10.8 14.3,-14.7 9.6,-3.9 18.8,-3.7 20.5,0.5 z"
             style="fill:none;stroke:#000099;stroke-width:0.50940001;stroke-linecap:butt;stroke-linejoin:round;stroke-miterlimit:10;stroke-dasharray:none;stroke-opacity:1"
             id="path262"
             inkscape:connector-curvature="0" /></g><g
           id="g264"><path
             d="M 112.5,451.3 Z"
             style="fill:none;stroke:#000099;stroke-width:0.50940001;stroke-linecap:butt;stroke-linejoin:round;stroke-miterlimit:10;stroke-dasharray:none;stroke-opacity:1"
             id="path266"
             inkscape:connector-curvature="0" /></g><g
           id="g268"><path
             d="M 80.8,473.1 Z"
             style="fill:none;stroke:#000099;stroke-width:0.50940001;stroke-linecap:butt;stroke-linejoin:round;stroke-miterlimit:10;stroke-dasharray:none;stroke-opacity:1"
             id="path270"
             inkscape:connector-curvature="0" /></g></g></g></g></svg>